<svg id="visual" viewBox="0 0 900 600" width="900" height="600" xmlns="http://www.w3.org/2000/svg" xmlns:xlink="http://www.w3.org/1999/xlink" version="1.1"><path d="M0 55L21.5 62C43 69 86 83 128.8 92C171.7 101 214.3 105 257.2 96C300 87 343 65 385.8 66C428.7 67 471.3 91 514.2 94C557 97 600 79 642.8 69C685.7 59 728.3 57 771.2 70C814 83 857 111 878.5 125L900 139L900 0L878.5 0C857 0 814 0 771.2 0C728.3 0 685.7 0 642.8 0C600 0 557 0 514.2 0C471.3 0 428.7 0 385.8 0C343 0 300 0 257.2 0C214.3 0 171.7 0 128.8 0C86 0 43 0 21.5 0L0 0Z" fill="#a50d20"></path><path d="M0 199L21.5 199C43 199 86 199 128.8 230C171.7 261 214.3 323 257.2 328C300 333 343 281 385.8 270C428.7 259 471.3 289 514.2 286C557 283 600 247 642.8 239C685.7 231 728.3 251 771.2 258C814 265 857 259 878.5 256L900 253L900 137L878.5 123C857 109 814 81 771.2 68C728.3 55 685.7 57 642.8 67C600 77 557 95 514.2 92C471.3 89 428.7 65 385.8 64C343 63 300 85 257.2 94C214.3 103 171.7 99 128.8 90C86 81 43 67 21.5 60L0 53Z" fill="#c21123"></path><path d="M0 385L21.5 382C43 379 86 373 128.8 391C171.7 409 214.3 451 257.2 468C300 485 343 477 385.8 465C428.7 453 471.3 437 514.2 421C557 405 600 389 642.8 392C685.7 395 728.3 417 771.2 421C814 425 857 411 878.5 404L900 397L900 251L878.5 254C857 257 814 263 771.2 256C728.3 249 685.7 229 642.8 237C600 245 557 281 514.2 284C471.3 287 428.7 257 385.8 268C343 279 300 331 257.2 326C214.3 321 171.7 259 128.8 228C86 197 43 197 21.5 197L0 197Z" fill="#e01824"></path><path d="M0 571L21.5 559C43 547 86 523 128.8 522C171.7 521 214.3 543 257.2 555C300 567 343 569 385.8 562C428.7 555 471.3 539 514.2 533C557 527 600 531 642.8 538C685.7 545 728.3 555 771.2 558C814 561 857 557 878.5 555L900 553L900 395L878.5 402C857 409 814 423 771.2 419C728.3 415 685.7 393 642.8 390C600 387 557 403 514.2 419C471.3 435 428.7 451 385.8 463C343 475 300 483 257.2 466C214.3 449 171.7 407 128.8 389C86 371 43 377 21.5 380L0 383Z" fill="#ec4946"></path><path d="M0 601L21.5 601C43 601 86 601 128.8 601C171.7 601 214.3 601 257.2 601C300 601 343 601 385.8 601C428.7 601 471.3 601 514.2 601C557 601 600 601 642.8 601C685.7 601 728.3 601 771.2 601C814 601 857 601 878.5 601L900 601L900 551L878.5 553C857 555 814 559 771.2 556C728.3 553 685.7 543 642.8 536C600 529 557 525 514.2 531C471.3 537 428.7 553 385.8 560C343 567 300 565 257.2 553C214.3 541 171.7 519 128.8 520C86 521 43 545 21.5 557L0 569Z" fill="#f56b67"></path></svg>