<svg id="visual" viewBox="0 0 900 600" width="900" height="600" xmlns="http://www.w3.org/2000/svg" xmlns:xlink="http://www.w3.org/1999/xlink" version="1.1"><path d="M0 49L82 61L164 73L245 97L327 49L409 73L491 97L573 37L655 67L736 85L818 67L900 97L900 0L818 0L736 0L655 0L573 0L491 0L409 0L327 0L245 0L164 0L82 0L0 0Z" fill="#00cc8e"></path><path d="M0 193L82 151L164 139L245 181L327 193L409 211L491 163L573 127L655 127L736 163L818 145L900 187L900 95L818 65L736 83L655 65L573 35L491 95L409 71L327 47L245 95L164 71L82 59L0 47Z" fill="#00b98a"></path><path d="M0 271L82 229L164 247L245 247L327 301L409 337L491 259L573 259L655 187L736 265L818 235L900 277L900 185L818 143L736 161L655 125L573 125L491 161L409 209L327 191L245 179L164 137L82 149L0 191Z" fill="#00a784"></path><path d="M0 385L82 373L164 397L245 409L327 499L409 499L491 391L573 373L655 391L736 355L818 427L900 463L900 275L818 233L736 263L655 185L573 257L491 257L409 335L327 299L245 245L164 245L82 227L0 269Z" fill="#00957c"></path><path d="M0 601L82 601L164 601L245 601L327 601L409 601L491 601L573 601L655 601L736 601L818 601L900 601L900 461L818 425L736 353L655 389L573 371L491 389L409 497L327 497L245 407L164 395L82 371L0 383Z" fill="#038373"></path></svg>