<?xml version="1.0" encoding="UTF-8"?>
<!DOCTYPE svg PUBLIC "-//W3C//DTD SVG 1.1//EN" "http://www.w3.org/Graphics/SVG/1.1/DTD/svg11.dtd">
<!-- Creator: CorelDRAW -->
<svg xmlns="http://www.w3.org/2000/svg" xml:space="preserve" width="2438px" height="1929px" version="1.1" style="shape-rendering:geometricPrecision; text-rendering:geometricPrecision; image-rendering:optimizeQuality; fill-rule:evenodd; clip-rule:evenodd"
viewBox="0 0 814.7 644.49"
 xmlns:xlink="http://www.w3.org/1999/xlink"
 xmlns:xodm="http://www.corel.com/coreldraw/odm/2003">
 <defs>
  <style type="text/css">
   <![CDATA[
    .str0 {stroke:white;stroke-width:2.67;stroke-miterlimit:22.9256}
    .str1 {stroke:white;stroke-width:0.67;stroke-miterlimit:22.9256}
    .fil6 {fill:none}
    .fil5 {fill:none;fill-rule:nonzero}
    .fil4 {fill:#009933}
    .fil0 {fill:white;fill-rule:nonzero}
    .fil1 {fill:#EE5A22;fill-opacity:0.780392}
    .fil2 {fill:#FA9221;fill-opacity:0.780392}
    .fil3 {fill:#FDF025;fill-opacity:0.780392}
    .fil7 {fill:url(#id5);fill-rule:nonzero}
   ]]>
  </style>
    <clipPath id="id0">
     <path d="M319.84 208.97l490.66 0 4.2 431.13 -490.67 0 -4.19 -431.13z"/>
    </clipPath>
   <clipPath id="id1" style="clip-rule:nonzero">
    <path d="M470.56 434.38l0 -119.54 -42.76 0 0 119.54 42.76 0zm34.02 55.91l-111.09 0 -26.44 -26.51 0 -178.34 26.44 -26.73 111.09 0 26.66 26.73 0 178.34 -26.66 26.51zm26.66 79.96l-164.19 0 0 -55.83 164.19 0 0 55.83zm233.02 0l-75.13 0 -28.09 -122.29 -25.43 12.86 0 53.6 14.38 0 0 55.83 -89.5 0 0 -55.83 14.37 0 0 -199.58 -14.37 0 0 -56.13 89.5 0 0 56.13 -14.38 0 0 89.93 53.52 -27.31 0 -62.62 -14.37 0 0 -56.13 89.5 0 0 56.13 -14.38 0 0 87.62 -34.45 17.55 21.74 94.41 27.09 0 0 55.83z"/>
   </clipPath>
    <clipPath id="id2">
     <path d="M378.31 0l398.45 0 0 106.16 -398.45 0 0 -106.16z"/>
    </clipPath>
    <clipPath id="id3">
     <path d="M0 205.81l385.37 0 3.17 438.68 -385.37 0 -3.17 -438.68z"/>
    </clipPath>
   <clipPath id="id4" style="clip-rule:nonzero">
    <path d="M305.72 566.05l-87.4 0 -25.21 -174.8 -25.35 174.8 -87.4 0 -21.82 -255.41 -13.72 0 0 -56.12 89.49 0 0 56.12 -15.02 0 14.16 165.27 32 -221.39 55.18 0 32 221.39 14.16 -165.27 -15.03 0 0 -56.12 89.5 0 0 56.12 -13.73 0 -21.81 255.41z"/>
   </clipPath>
  <linearGradient id="id5" gradientUnits="userSpaceOnUse" x1="622.46" y1="84.49" x2="766.78" y2="233.58">
   <stop offset="0" style="stop-opacity:1; stop-color:#FFCC00"/>
   <stop offset="1" style="stop-opacity:1; stop-color:#DE7E00"/>
  </linearGradient>
 </defs>
 <g id="Capa_x0020_1">
  <metadata id="CorelCorpID_0Corel-Layer"/>
  <g id="_3181586641584">
   <g style="clip-path:url(#id0)">
    <image x="319.84" y="208.97" width="494.86" height="431.13" xlink:href="CARTAS-2025_Images\CARTAS-2025_ImgID1.png"/>
   </g>
  </g>
  <path class="fil0" d="M470.56 434.38l0 -119.54 -42.76 0 0 119.54 42.76 0zm34.02 55.91l-111.09 0 -26.44 -26.51 0 -178.34 26.44 -26.73 111.09 0 26.66 26.73 0 178.34 -26.66 26.51zm26.66 79.96l-164.19 0 0 -55.83 164.19 0 0 55.83zm233.02 0l-75.13 0 -28.09 -122.29 -25.43 12.86 0 53.6 14.38 0 0 55.83 -89.5 0 0 -55.83 14.37 0 0 -199.58 -14.37 0 0 -56.13 89.5 0 0 56.13 -14.38 0 0 89.93 53.52 -27.31 0 -62.62 -14.37 0 0 -56.13 89.5 0 0 56.13 -14.38 0 0 87.62 -34.45 17.55 21.74 94.41 27.09 0 0 55.83z"/>
  <g style="clip-path:url(#id1)">
   <g id="_3181586640432">
    <g>
     <path id="_1" class="fil1" d="M616.41 285.3c8.16,18.53 1.94,33.72 -8.44,46.48 -15.73,19.35 -46.2,27.64 -65.41,47.59 -0.94,0.98 -3.08,3.24 -3.93,3.95 -5.59,4.68 -10.86,13.1 -14.74,19.43 -12.88,21.07 -15.76,46.19 -15.87,71.27 -15.72,-8.69 -20.87,-29.37 -24.82,-49.63 -0.31,0.44 -0.7,0.6 -0.82,1.39 -0.12,0.78 -0.62,1.05 -0.78,1.4l-2.81 9.15c-2.56,13.42 -2.83,29.64 -2.13,43.19 1.93,37.26 11.88,59.98 36.79,84.85 6.92,6.91 27.32,22.39 40.08,23.13 8.3,1.13 1.5,0.11 4.44,-1.25 -9.78,-2.23 -25.8,-15.8 -31.29,-23.54 -13.48,-19.02 -19.6,-49.16 -14.56,-73.64 5.15,11.73 8.61,25.72 21.21,31.71 0.65,-41.66 2.13,-54.35 29.49,-76.66 11.53,-9.4 20.85,-13.02 29.51,-24.12 16.63,-21.33 2.56,-25.62 0.14,-38.9 8.57,9.01 14.04,6.74 20.33,25.15 5.2,15.22 3.15,28.22 4.65,44.9 1.7,18.97 8.33,19.41 20.68,28.46 13.44,9.84 12.79,18.65 21.61,27.82 2.29,-3.35 2.54,-3.85 3.51,-7.73l2.9 -11.51c5.03,18.54 18.45,30.54 7.66,57.44 -4.85,12.1 -12.74,23.59 -22.7,30.73 -12.12,8.68 -9.51,5.4 -6.77,9.13 25.21,-10.79 45.74,-30.95 56.83,-54.77 12.15,-26.08 8.74,-69.1 -6.1,-90.8 -0.04,20.49 -0.78,22.04 -8.58,37.17 -9.17,-13.34 -5.75,-26.6 -21.59,-43.95 -10.52,-11.52 -24.89,-17.45 -27.32,-39.09 -3.34,-29.71 9.28,-54.13 -2.69,-89.73 -4.15,-12.37 -11.89,-24.31 -24.23,-29.9l5.75 10.88z"/>
     <path class="fil2" d="M553.53 587.5c10.02,10.48 43.82,10.67 59.56,7.04 11.63,-0.83 22.82,-4.76 31.25,-9.05 -2.74,-3.73 -5.35,-0.45 6.77,-9.13 9.96,-7.14 17.85,-18.63 22.7,-30.73 10.79,-26.9 -2.63,-38.9 -7.66,-57.44l-2.9 11.51c-0.97,3.88 -1.22,4.38 -3.51,7.73 -8.82,-9.17 -8.17,-17.98 -21.61,-27.82 -12.35,-9.05 -18.98,-9.49 -20.68,-28.46 -1.5,-16.68 0.55,-29.68 -4.65,-44.9 -6.29,-18.41 -11.76,-16.14 -20.33,-25.15 2.42,13.28 16.49,17.57 -0.14,38.9 -8.66,11.1 -17.98,14.72 -29.51,24.12 -27.36,22.31 -28.84,35 -29.49,76.66 -12.6,-5.99 -16.06,-19.98 -21.21,-31.71 -5.04,24.48 1.08,54.62 14.56,73.64 5.49,7.74 21.51,21.31 31.29,23.54 -2.94,1.36 3.86,2.38 -4.44,1.25z"/>
     <path class="fil3" d="M613.09 594.54c13.32,-9.39 19.04,-6.72 29.32,-22.77 8.39,-13.08 9.39,-27.46 7.09,-45.57 -5.42,8.53 -3.38,12.24 -12.63,18.67 -2.9,-64.74 -52.43,-39.1 -46.76,-82.22 -14.96,11.01 -8.26,25.69 -10.26,44.91 -1.09,10.47 -5.1,11.89 -11.32,17.21 -7.1,6.09 -7.19,10.91 -11.9,17 -4.34,-4.82 -2.54,-4.45 -5.55,-9.92 -5.73,23.69 -8.47,32.86 7.96,48.55 14.98,14.31 27.15,15.58 54.05,14.14z"/>
    </g>
    <path class="fil4" d="M15.79 231.06l49.9 6.48 -1.25 65 12.18 0.27 26.92 302.39c0,0 -58.93,-8.95 -68.63,-13.43 -9.7,-4.48 -58.94,47 -47.75,-41.78 11.19,-88.78 -14.17,-207.4 -8.21,-235.74 5.97,-28.35 36.84,-83.19 36.84,-83.19z"/>
   </g>
  </g>
  <path class="fil5" d="M470.56 434.38l0 -119.54 -42.76 0 0 119.54 42.76 0zm34.02 55.91l-111.09 0 -26.44 -26.51 0 -178.34 26.44 -26.73 111.09 0 26.66 26.73 0 178.34 -26.66 26.51zm26.66 79.96l-164.19 0 0 -55.83 164.19 0 0 55.83zm233.02 0l-75.13 0 -28.09 -122.29 -25.43 12.86 0 53.6 14.38 0 0 55.83 -89.5 0 0 -55.83 14.37 0 0 -199.58 -14.37 0 0 -56.13 89.5 0 0 56.13 -14.38 0 0 89.93 53.52 -27.31 0 -62.62 -14.37 0 0 -56.13 89.5 0 0 56.13 -14.38 0 0 87.62 -34.45 17.55 21.74 94.41 27.09 0 0 55.83z"/>
  <g id="_3181586645952">
   <g style="clip-path:url(#id2)">
    <image x="378.31" y="0" width="398.45" height="106.16" xlink:href="CARTAS-2025_Images\CARTAS-2025_ImgID2.png"/>
   </g>
  </g>
  <path class="fil0" d="M395.1 16.12l0 76.88 -4.8 0 0 -81.67 14.41 0c9.61,0 14.42,4.79 14.42,14.4l0 14.41c0,9.61 -4.81,14.42 -14.42,14.42l-0.72 0 15.28 38.44 -5.19 0 -17.21 -43.25 7.84 0c6.41,0 9.61,-3.19 9.61,-9.61l0 -14.41c0,-6.4 -3.2,-9.61 -9.61,-9.61l-9.61 0zm57.66 -4.79l0 4.79 -19.22 0 0 33.63 14.42 0 0 4.81 -14.42 0 0 33.63 19.22 0 0 4.81 -24.02 0 0 -81.67 24.02 0zm5 67.25l0 -9.61 4.81 0 0 9.61c0,6.41 3.19,9.61 9.61,9.61 6.41,0 9.61,-3.2 9.61,-9.61l0 -4.8c0,-6.41 -4.01,-13.22 -12.02,-20.42 -8.01,-7.2 -12.01,-14.81 -12.01,-22.83l0 -4.8c0,-9.61 4.81,-14.4 14.42,-14.4 9.61,0 14.41,4.79 14.41,14.4l0 9.61 -4.8 0 0 -9.61c0,-6.4 -3.2,-9.61 -9.61,-9.61 -6.42,0 -9.61,3.21 -9.61,9.61l0 4.8c0,6.42 4,13.22 12,20.42 8.02,7.22 12.02,14.82 12.02,22.83l0 4.8c0,9.61 -4.8,14.42 -14.41,14.42 -9.61,0 -14.42,-4.81 -14.42,-14.42zm60.3 -67.25l0 4.79 -12.02 0 0 76.88 -4.81 0 0 -76.88 -12 0 0 -4.79 28.83 0zm22.68 57.64l-16.43 0 -4.23 24.03 -4.86 0 14.37 -81.67 5.87 0 14.36 81.67 -4.85 0 -4.23 -24.03zm-15.56 -4.8l14.69 0 -7.35 -41.93 -7.34 41.93zm31.37 14.41l0 -67.25 4.8 0 0 67.25c0,6.41 3.2,9.61 9.61,9.61 6.41,0 9.61,-3.2 9.61,-9.61l0 -67.25 4.81 0 0 67.25c0,9.61 -4.81,14.42 -14.42,14.42 -9.61,0 -14.41,-4.81 -14.41,-14.42zm43.24 -62.46l0 76.88 -4.81 0 0 -81.67 14.42 0c9.61,0 14.41,4.79 14.41,14.4l0 14.41c0,9.61 -4.8,14.42 -14.41,14.42l-0.72 0 15.28 38.44 -5.2 0 -17.2 -43.25 7.84 0c6.41,0 9.61,-3.19 9.61,-9.61l0 -14.41c0,-6.4 -3.2,-9.61 -9.61,-9.61l-9.61 0zm54.38 52.85l-16.43 0 -4.24 24.03 -4.85 0 14.37 -81.67 5.87 0 14.36 81.67 -4.85 0 -4.23 -24.03zm-15.57 -4.8l14.7 0 -7.35 -41.93 -7.35 41.93zm36.18 -37.42l0 66.25 -4.81 0 0 -81.67 5.48 0 18.55 66.25 0 -66.25 4.8 0 0 81.67 -5.47 0 -18.55 -66.25zm59.15 -15.42l0 4.79 -12.02 0 0 76.88 -4.81 0 0 -76.88 -12 0 0 -4.79 28.83 0zm30.32 0l0 4.79 -19.22 0 0 33.63 14.41 0 0 4.81 -14.41 0 0 33.63 19.22 0 0 4.81 -24.02 0 0 -81.67 24.02 0z"/>
  <path class="fil0" d="M113.78 234.59c-1.14,-4.7 -2.31,-9.65 -3.53,-14.84 -1.21,-5.19 -2.47,-10.3 -3.77,-15.33 -4.38,0.98 -9.08,1.71 -14.11,2.19l-0.24 0c-2.11,0 -3.17,-0.89 -3.17,-2.67 0,-1.95 0.81,-3 2.44,-3.17 1.13,-0.32 2.27,-0.52 3.4,-0.6 1.14,-0.09 2.27,-0.21 3.41,-0.37 1.13,-0.16 2.23,-0.32 3.28,-0.49 1.06,-0.16 2.15,-0.4 3.29,-0.73 -1.79,-6.97 -3.37,-13.3 -4.75,-18.97 -1.38,-5.68 -2.39,-9.74 -3.04,-12.17 -2.11,-9.41 -4.01,-18.85 -5.72,-28.34 -1.7,-9.49 -2.55,-19.1 -2.55,-28.83 0,-6.98 0.93,-13.47 2.8,-19.47 1.86,-6 4.66,-11.23 8.39,-15.69 3.73,-4.46 8.36,-7.95 13.87,-10.46 5.52,-2.52 12,-3.78 19.46,-3.78 7.79,0 15.01,1.34 21.66,4.02 6.65,2.68 12.41,6.45 17.27,11.31 4.87,4.87 8.72,10.59 11.56,17.16 2.84,6.56 4.26,13.74 4.26,21.53 0,11.03 -2.11,21.57 -6.33,31.63 -4.22,10.05 -9.97,19.22 -17.27,27.49 -6,6.81 -12.82,12.41 -20.44,16.79 -7.62,4.38 -15.65,7.87 -24.09,10.46l0 19.95 0 12.41c1.3,4.54 2.44,9.08 3.41,13.62 0.97,4.55 1.46,8.52 1.46,11.93 0,1.29 -0.28,2.59 -0.85,3.89 -0.57,1.3 -1.67,1.95 -3.29,1.95 -1.29,0 -2.27,-0.45 -2.92,-1.34 -0.65,-0.89 -1.13,-1.83 -1.46,-2.8 -0.97,-3.08 -1.62,-7.18 -1.94,-12.29 -0.33,-5.11 -0.49,-9.77 -0.49,-13.99zm-3.16 -37.22c0.16,0 0.28,-0.04 0.36,-0.12 0.08,-0.09 0.21,-0.13 0.37,-0.13 0.32,-0.16 0.73,-0.24 1.21,-0.24 0.49,0 0.9,-0.08 1.22,-0.24 0,-14.76 0,-29.48 0,-44.16 0,-14.68 0.08,-29.4 0.24,-44.16 -0.32,0.32 -0.89,0.49 -1.7,0.49 -1.95,0 -2.92,-0.98 -2.92,-2.92 0,-0.98 0.12,-2.48 0.37,-4.51 0.24,-2.02 0.69,-4.05 1.33,-6.08 0.65,-2.03 1.42,-3.81 2.32,-5.35 0.89,-1.54 1.98,-2.31 3.28,-2.31 1.14,0 2.03,0.44 2.68,1.34 0.65,0.89 0.97,1.82 0.97,2.79 0,5.36 -0.04,10.75 -0.12,16.18 -0.08,5.44 -0.12,10.83 -0.12,16.18l-0.25 64.72 0 5.84c12.17,-3.89 22.79,-9.49 31.88,-16.79 9.08,-7.3 16.46,-16.95 22.14,-28.95 2.43,-5.19 4.38,-10.71 5.84,-16.54 1.46,-5.84 2.18,-11.68 2.18,-17.52 0,-6.98 -1.25,-13.38 -3.77,-19.22 -2.51,-5.84 -5.96,-10.91 -10.34,-15.21 -4.38,-4.3 -9.57,-7.62 -15.57,-9.97 -6,-2.36 -12.41,-3.53 -19.22,-3.53 -6.81,0 -12.65,1.17 -17.52,3.53 -4.86,2.35 -8.8,5.55 -11.8,9.61 -3,4.05 -5.19,8.8 -6.57,14.23 -1.37,5.43 -2.06,11.31 -2.06,17.64 0,7.95 0.64,15.73 1.94,23.36 1.3,7.62 2.76,15.32 4.38,23.11 1.46,6.65 2.96,13.18 4.5,19.58 1.54,6.41 3.13,12.86 4.75,19.35zm3.16 5.59c-0.32,0.17 -0.61,0.21 -0.85,0.13 -0.24,-0.09 -0.53,-0.05 -0.85,0.12 0.32,1.13 0.61,2.27 0.85,3.4 0.24,1.14 0.53,2.27 0.85,3.41l0 -7.06zm104.62 -29.44c-0.81,2.76 -2.15,5.19 -4.01,7.3 -1.87,2.11 -4.34,3.17 -7.43,3.17 -3.89,0 -6.6,-1.46 -8.15,-4.38 -1.54,-2.92 -2.31,-6 -2.31,-9.25 0,-1.62 0.29,-3.45 0.85,-5.47 0.57,-2.03 1.34,-3.94 2.32,-5.72 0.97,-1.79 2.23,-3.29 3.77,-4.5 1.54,-1.22 3.28,-1.83 5.23,-1.83 0.81,0 1.74,0.17 2.8,0.49 1.05,0.32 1.9,0.89 2.55,1.7 2.27,0.33 3.77,1.75 4.5,4.26 0.73,2.51 1.1,4.74 1.1,6.69 0,0.33 -0.04,0.65 -0.13,0.97 -0.08,0.33 -0.12,0.65 -0.12,0.98 1.14,0.32 2.23,0.52 3.29,0.61 1.05,0.08 1.98,0.12 2.8,0.12 1.94,0 3.77,-0.29 5.47,-0.85 1.7,-0.57 3.2,-1.14 4.5,-1.71 1.3,-0.56 2.39,-1.13 3.29,-1.7 0.89,-0.57 1.5,-0.85 1.82,-0.85 0.81,0 1.5,0.24 2.07,0.73 0.57,0.49 0.85,1.13 0.85,1.94 0,1.46 -0.77,2.68 -2.31,3.65 -1.54,0.98 -3.33,1.79 -5.35,2.44 -2.03,0.65 -4.1,1.13 -6.21,1.46 -2.11,0.32 -3.73,0.48 -4.86,0.48 -0.98,0 -1.99,-0.04 -3.05,-0.12 -1.05,-0.08 -2.14,-0.28 -3.28,-0.61zm-5.35 -2.43c-2.6,-1.78 -3.9,-4.38 -3.9,-7.79 0,-0.48 0,-1.13 0,-1.94 0,-0.81 0.17,-1.62 0.49,-2.43 -0.16,-0.17 -0.49,-0.25 -0.97,-0.25 -1.14,0 -2.11,0.49 -2.92,1.46 -0.81,0.98 -1.46,2.11 -1.95,3.41 -0.48,1.3 -0.85,2.67 -1.09,4.13 -0.25,1.46 -0.37,2.6 -0.37,3.41 0,1.46 0.29,3.04 0.85,4.75 0.57,1.7 1.83,2.55 3.77,2.55 1.79,0 3.13,-0.77 4.02,-2.31 0.89,-1.54 1.58,-3.21 2.07,-4.99zm46.22 -88.07c-0.32,10.05 -1.54,19.95 -3.64,29.68 -2.11,9.73 -4.79,19.38 -8.03,28.95 -0.81,2.27 -1.54,4.54 -2.19,6.81 -0.65,2.27 -1.46,4.55 -2.44,6.82 0,0 -0.16,0.16 -0.48,0.48 0.32,9.57 0.81,19.02 1.46,28.35 0.65,9.32 1.38,18.77 2.19,28.34 0.81,0.33 1.5,0.65 2.06,0.98 0.57,0.32 0.86,0.97 0.86,1.94l0 10.22c0,0.97 -0.17,2.11 -0.49,3.41 -0.33,1.29 -1.14,1.94 -2.43,1.94 -1.14,0 -1.91,-0.36 -2.32,-1.09 -0.4,-0.73 -0.77,-1.58 -1.09,-2.56 -1.46,-4.86 -2.35,-10.09 -2.68,-15.69 -0.32,-5.6 -0.65,-10.99 -0.97,-16.18 -1.46,-19.46 -2.19,-38.93 -2.19,-58.39 0,-3.73 0.04,-8.88 0.12,-15.45 0.08,-6.57 0.33,-13.3 0.73,-20.2 0.41,-6.89 1.1,-13.38 2.07,-19.46 0.97,-6.08 2.27,-10.58 3.89,-13.5 0.81,-1.3 1.71,-2.48 2.68,-3.53 0.97,-1.05 2.35,-1.58 4.14,-1.58 1.94,0 3.52,0.73 4.74,2.19 1.22,1.46 2.11,3.24 2.68,5.35 0.56,2.11 0.93,4.22 1.09,6.33 0.16,2.1 0.24,3.89 0.24,5.35l0 0.49zm-17.03 56.68c3.09,-9.24 5.76,-18.61 8.03,-28.1 2.27,-9.49 3.41,-19.1 3.41,-28.83 0,-0.48 -0.04,-1.5 -0.12,-3.04 -0.08,-1.54 -0.25,-3.08 -0.49,-4.62 -0.24,-1.54 -0.57,-2.92 -0.97,-4.14 -0.41,-1.21 -0.94,-1.82 -1.58,-1.82 -0.65,0 -1.26,0.65 -1.83,1.94 -0.57,1.3 -1.01,2.27 -1.34,2.92 -1.29,3.9 -2.27,8.36 -2.92,13.38 -0.65,5.03 -1.13,10.22 -1.46,15.58 -0.32,5.35 -0.52,10.66 -0.6,15.93 -0.09,5.27 -0.13,10.02 -0.13,14.24l0 6.56zm43.55 -56.68c-0.32,10.05 -1.54,19.95 -3.65,29.68 -2.1,9.73 -4.78,19.38 -8.02,28.95 -0.82,2.27 -1.54,4.54 -2.19,6.81 -0.65,2.27 -1.46,4.55 -2.44,6.82 0,0 -0.16,0.16 -0.48,0.48 0.32,9.57 0.81,19.02 1.46,28.35 0.65,9.32 1.38,18.77 2.19,28.34 0.81,0.33 1.5,0.65 2.06,0.98 0.57,0.32 0.86,0.97 0.86,1.94l0 10.22c0,0.97 -0.17,2.11 -0.49,3.41 -0.33,1.29 -1.14,1.94 -2.43,1.94 -1.14,0 -1.91,-0.36 -2.32,-1.09 -0.4,-0.73 -0.77,-1.58 -1.09,-2.56 -1.46,-4.86 -2.35,-10.09 -2.68,-15.69 -0.32,-5.6 -0.65,-10.99 -0.97,-16.18 -1.46,-19.46 -2.19,-38.93 -2.19,-58.39 0,-3.73 0.04,-8.88 0.12,-15.45 0.08,-6.57 0.33,-13.3 0.73,-20.2 0.41,-6.89 1.1,-13.38 2.07,-19.46 0.97,-6.08 2.27,-10.58 3.89,-13.5 0.81,-1.3 1.71,-2.48 2.68,-3.53 0.97,-1.05 2.35,-1.58 4.14,-1.58 1.94,0 3.52,0.73 4.74,2.19 1.22,1.46 2.11,3.24 2.68,5.35 0.56,2.11 0.93,4.22 1.09,6.33 0.16,2.1 0.24,3.89 0.24,5.35l0 0.49zm-17.03 56.68c3.09,-9.24 5.76,-18.61 8.03,-28.1 2.27,-9.49 3.41,-19.1 3.41,-28.83 0,-0.48 -0.04,-1.5 -0.12,-3.04 -0.08,-1.54 -0.25,-3.08 -0.49,-4.62 -0.24,-1.54 -0.57,-2.92 -0.97,-4.14 -0.41,-1.21 -0.94,-1.82 -1.58,-1.82 -0.65,0 -1.26,0.65 -1.83,1.94 -0.57,1.3 -1.01,2.27 -1.34,2.92 -1.29,3.9 -2.27,8.36 -2.92,13.38 -0.65,5.03 -1.13,10.22 -1.46,15.58 -0.32,5.35 -0.52,10.66 -0.61,15.93 -0.08,5.27 -0.12,10.02 -0.12,14.24l0 6.56zm35.28 38.93c3.08,0 6.33,-0.4 9.73,-1.21 3.41,-0.81 6.74,-1.87 9.98,-3.17 3.24,-1.29 6.41,-2.79 9.49,-4.5 3.08,-1.7 5.84,-3.36 8.27,-4.98 0.33,-0.17 0.61,-0.33 0.85,-0.49 0.25,-0.16 0.53,-0.25 0.85,-0.25 0.81,0 1.5,0.25 2.07,0.74 0.57,0.48 0.85,1.13 0.85,1.94 0,0.97 -0.36,1.74 -1.09,2.31 -0.73,0.57 -1.5,1.1 -2.31,1.58 -5.36,3.57 -11.64,6.78 -18.86,9.61 -7.22,2.84 -14.07,4.26 -20.56,4.26 -4.38,0 -7.7,-1.3 -9.97,-3.89 -2.27,-2.6 -3.41,-6 -3.41,-10.22 0,-1.95 0.37,-4.09 1.1,-6.45 0.73,-2.35 1.78,-4.54 3.16,-6.57 1.38,-2.02 3,-3.73 4.86,-5.11 1.87,-1.37 3.94,-2.06 6.21,-2.06 2.11,0 3.89,0.65 5.35,1.94 1.46,1.3 2.19,3.09 2.19,5.36 0,1.78 -0.53,3.44 -1.58,4.98 -1.05,1.54 -2.35,2.92 -3.89,4.14 -1.54,1.22 -3.25,2.31 -5.11,3.28 -1.87,0.98 -3.61,1.71 -5.23,2.19l-0.73 0c0,2.6 0.65,4.34 1.94,5.23 1.3,0.9 3.25,1.34 5.84,1.34zm-7.54 -12.65c2.27,-0.81 4.58,-1.9 6.93,-3.28 2.36,-1.38 3.53,-3.13 3.53,-5.23 0,-0.98 -0.57,-1.46 -1.7,-1.46 -2.27,0 -4.1,1.05 -5.48,3.16 -1.37,2.11 -2.47,4.38 -3.28,6.81zm51.34 0c1.13,-2.27 2.67,-4.7 4.62,-7.3 1.95,-2.59 4.3,-3.89 7.05,-3.89 1.79,0 3.29,0.49 4.51,1.46 1.21,0.97 2.35,2.03 3.4,3.16 1.06,1.14 2.19,2.19 3.41,3.17 1.22,0.97 2.72,1.45 4.5,1.45l2.92 0.25c1.62,0 2.96,-0.25 4.01,-0.73 1.06,-0.49 1.75,-0.73 2.07,-0.73 0.81,0 1.5,0.24 2.07,0.73 0.57,0.48 0.85,1.13 0.85,1.94 0,2.11 -1.17,3.37 -3.53,3.78 -2.35,0.4 -4.25,0.6 -5.71,0.6l-2.68 -0.24c-2.43,0 -4.46,-0.49 -6.08,-1.46 -1.62,-0.97 -3.04,-2.03 -4.26,-3.16 -1.22,-1.14 -2.23,-2.15 -3.04,-3.04 -0.81,-0.9 -1.62,-1.34 -2.44,-1.34 -0.64,0 -1.25,0.28 -1.82,0.85 -0.57,0.57 -1.01,1.1 -1.34,1.58 -2.76,3.57 -4.7,7.38 -5.84,11.44 -1.13,4.05 -1.94,8.27 -2.43,12.65 -0.32,1.78 -1.22,2.68 -2.68,2.68 -1.62,0 -2.59,-0.9 -2.92,-2.68 -0.32,-2.76 -0.48,-5.6 -0.48,-8.52 0,-2.92 0,-5.76 0,-8.51 0,-0.81 0.04,-2.11 0.12,-3.9 0.08,-1.78 0.28,-3.56 0.61,-5.35 0.32,-1.78 0.77,-3.4 1.34,-4.86 0.56,-1.46 1.41,-2.19 2.55,-2.19 0.81,0 1.5,0.24 2.07,0.73 0.57,0.48 0.85,1.13 0.85,1.94 0,0.49 -0.08,0.89 -0.24,1.22 -0.49,1.3 -0.81,2.63 -0.98,4.01 -0.16,1.38 -0.32,2.8 -0.48,4.26zm36.98 -28.22c0,-1.14 0.4,-2.11 1.21,-2.92 0.82,-0.81 1.79,-1.22 2.92,-1.22 1.14,0 2.11,0.41 2.92,1.22 0.82,0.81 1.22,1.78 1.22,2.92 0,1.13 -0.4,2.11 -1.22,2.92 -0.81,0.81 -1.78,1.21 -2.92,1.21 -1.13,0 -2.1,-0.4 -2.92,-1.21 -0.81,-0.81 -1.21,-1.79 -1.21,-2.92zm11.19 45.5c-2.76,0 -4.99,-0.69 -6.69,-2.07 -1.7,-1.38 -3.04,-3.12 -4.01,-5.23 -0.98,-2.11 -1.63,-4.42 -1.95,-6.94 -0.33,-2.51 -0.49,-4.82 -0.49,-6.93 0,-1.14 0.16,-2.6 0.49,-4.38 0.32,-1.79 1.3,-2.68 2.92,-2.68 1.3,0 2.11,0.53 2.43,1.58 0.33,1.06 0.49,2.07 0.49,3.05l-0.49 2.92c0,1.13 0.04,2.59 0.12,4.37 0.08,1.79 0.37,3.45 0.85,4.99 0.49,1.54 1.22,2.88 2.19,4.02 0.98,1.13 2.36,1.7 4.14,1.7 2.43,0 4.91,-0.73 7.42,-2.19 2.52,-1.46 4.83,-3.04 6.94,-4.74 2.1,-1.71 3.97,-3.25 5.59,-4.63 1.62,-1.38 2.76,-2.07 3.41,-2.07 0.81,0 1.5,0.29 2.07,0.86 0.56,0.56 0.85,1.25 0.85,2.06 0,0.98 -0.81,2.19 -2.44,3.65 -1.62,1.46 -3.44,2.92 -5.47,4.38 -2.03,1.46 -4.06,2.8 -6.08,4.02 -2.03,1.21 -3.53,2.07 -4.5,2.55 -2.27,1.14 -4.87,1.71 -7.79,1.71zm43.31 -14.6c-0.81,0.97 -1.95,2.11 -3.41,3.4 -1.46,1.3 -2.96,2.56 -4.5,3.78 -1.54,1.21 -3.12,2.27 -4.74,3.16 -1.63,0.89 -3.09,1.34 -4.38,1.34 -2.6,0 -4.3,-1.06 -5.11,-3.17 -0.81,-2.11 -1.22,-4.21 -1.22,-6.32 0,-1.79 0.28,-3.61 0.85,-5.48 0.57,-1.86 1.38,-3.61 2.44,-5.23 1.05,-1.62 2.39,-2.92 4.01,-3.89 1.62,-0.97 3.41,-1.46 5.35,-1.46 1.3,0 2.92,0.41 4.87,1.22 1.95,0.81 3.73,1.86 5.35,3.16 0.65,-1.14 1.46,-1.7 2.43,-1.7 0.82,0 1.46,0.28 1.95,0.85 0.49,0.56 0.81,1.25 0.97,2.07 0.17,1.13 0.33,2.55 0.49,4.25 0.16,1.71 0.49,3.33 0.97,4.87 0.49,1.54 1.22,2.88 2.19,4.01 0.98,1.14 2.27,1.71 3.9,1.71 1.78,0 3.73,-0.57 5.84,-1.71 2.1,-1.13 4.13,-2.43 6.08,-3.89 1.94,-1.46 3.69,-2.76 5.23,-3.89 1.54,-1.14 2.64,-1.71 3.28,-1.71 0.81,0 1.5,0.29 2.07,0.86 0.57,0.56 0.85,1.25 0.85,2.06 0,0.98 -0.4,1.79 -1.21,2.44 -0.81,0.65 -1.54,1.21 -2.19,1.7 -2.76,1.95 -5.92,4.06 -9.49,6.33 -3.57,2.27 -7.06,3.4 -10.46,3.4 -3.41,0 -6.17,-1.25 -8.28,-3.77 -2.1,-2.51 -3.48,-5.31 -4.13,-8.39zm-17.03 6.08c2.43,-0.65 4.78,-2.03 7.05,-4.14 2.27,-2.1 4.3,-4.29 6.09,-6.57 -0.82,-0.81 -1.71,-1.58 -2.68,-2.31 -0.97,-0.73 -2.35,-1.09 -4.14,-1.09 -2.59,0 -4.38,1.38 -5.35,4.14 -0.97,2.75 -1.46,5.19 -1.46,7.29 0,0.49 0.04,0.94 0.12,1.34 0.08,0.41 0.2,0.85 0.37,1.34z"/>
  <line class="fil6 str0" x1="82.94" y1="595.08" x2="308.07" y2= "596.47" />
  <g id="_3181586260592">
   <g style="clip-path:url(#id3)">
    <image x="0" y="205.81" width="388.54" height="438.68" xlink:href="CARTAS-2025_Images\CARTAS-2025_ImgID3.png"/>
   </g>
  </g>
  <polygon class="fil0" points="305.72,566.05 218.32,566.05 193.11,391.25 167.76,566.05 80.36,566.05 58.54,310.64 44.82,310.64 44.82,254.52 134.31,254.52 134.31,310.64 119.29,310.64 133.45,475.91 165.45,254.52 220.63,254.52 252.63,475.91 266.79,310.64 251.76,310.64 251.76,254.52 341.26,254.52 341.26,310.64 327.53,310.64 "/>
  <g style="clip-path:url(#id4)">
   <g id="_3181586259824">
    <g>
     <path id="_1_0" class="fil1" d="M612.21 281.11c8.16,18.52 1.95,33.71 -8.43,46.47 -15.73,19.35 -46.21,27.64 -65.41,47.59 -0.95,0.98 -3.09,3.24 -3.93,3.95 -5.6,4.68 -10.87,13.1 -14.74,19.43 -12.89,21.07 -15.76,46.19 -15.88,71.27 -15.72,-8.68 -20.87,-29.37 -24.81,-49.63 -0.32,0.44 -0.71,0.6 -0.83,1.39 -0.12,0.78 -0.62,1.05 -0.78,1.4l-2.8 9.16c-2.56,13.42 -2.84,29.63 -2.14,43.19 1.93,37.26 11.89,59.97 36.8,84.84 6.92,6.92 27.31,22.4 40.07,23.13 8.3,1.13 1.5,0.11 4.44,-1.25 -9.77,-2.23 -25.79,-15.79 -31.28,-23.54 -13.49,-19.02 -19.6,-49.16 -14.56,-73.64 5.15,11.73 8.61,25.72 21.2,31.71 0.66,-41.66 2.14,-54.35 29.5,-76.66 11.52,-9.39 20.84,-13.02 29.5,-24.12 16.63,-21.33 2.56,-25.62 0.14,-38.89 8.58,9 14.05,6.74 20.34,25.15 5.2,15.22 3.15,28.21 4.64,44.89 1.71,18.97 8.33,19.41 20.68,28.46 13.44,9.85 12.8,18.65 21.62,27.82 2.29,-3.35 2.54,-3.85 3.51,-7.73l2.89 -11.51c5.03,18.54 18.45,30.55 7.66,57.45 -4.85,12.09 -12.73,23.59 -22.7,30.72 -12.12,8.68 -9.5,5.4 -6.76,9.13 25.2,-10.78 45.74,-30.95 56.83,-54.77 12.14,-26.07 8.74,-69.1 -6.1,-90.8 -0.05,20.49 -0.79,22.04 -8.59,37.17 -9.16,-13.34 -5.74,-26.59 -21.59,-43.94 -10.52,-11.53 -24.89,-17.46 -27.31,-39.1 -3.34,-29.71 9.27,-54.13 -2.69,-89.73 -4.16,-12.37 -11.9,-24.3 -24.23,-29.9l5.74 10.89z"/>
     <path class="fil2" d="M549.33 583.3c10.02,10.48 43.82,10.68 59.57,7.05 11.63,-0.84 22.82,-4.77 31.25,-9.06 -2.74,-3.73 -5.36,-0.45 6.76,-9.13 9.97,-7.13 17.85,-18.63 22.7,-30.72 10.79,-26.9 -2.63,-38.91 -7.66,-57.45l-2.89 11.51c-0.97,3.88 -1.22,4.38 -3.51,7.73 -8.82,-9.17 -8.18,-17.97 -21.62,-27.82 -12.35,-9.05 -18.97,-9.49 -20.68,-28.46 -1.49,-16.68 0.56,-29.67 -4.64,-44.89 -6.29,-18.41 -11.76,-16.15 -20.34,-25.15 2.42,13.27 16.49,17.56 -0.14,38.89 -8.66,11.1 -17.98,14.73 -29.5,24.12 -27.36,22.31 -28.84,35 -29.5,76.66 -12.59,-5.99 -16.05,-19.98 -21.2,-31.71 -5.04,24.48 1.07,54.62 14.56,73.64 5.49,7.75 21.51,21.31 31.28,23.54 -2.94,1.36 3.86,2.38 -4.44,1.25z"/>
     <path class="fil3" d="M608.9 590.35c13.32,-9.4 19.04,-6.73 29.32,-22.78 8.38,-13.08 9.39,-27.46 7.08,-45.57 -5.41,8.53 -3.38,12.25 -12.63,18.67 -2.89,-64.74 -52.43,-39.1 -46.75,-82.21 -14.96,11 -8.27,25.69 -10.27,44.91 -1.08,10.47 -5.09,11.88 -11.31,17.21 -7.11,6.08 -7.19,10.9 -11.9,17 -4.35,-4.83 -2.54,-4.46 -5.56,-9.93 -5.73,23.69 -8.46,32.87 7.96,48.55 14.98,14.31 27.16,15.58 54.06,14.15z"/>
    </g>
    <path class="fil4" d="M11.6 226.86l49.9 6.49 -1.25 64.99 12.18 0.27 26.92 302.39c0,0 -58.94,-8.95 -68.64,-13.43 -9.7,-4.47 -58.94,47 -47.75,-41.77 11.2,-88.78 -14.17,-207.4 -8.2,-235.75 5.97,-28.35 36.84,-83.19 36.84,-83.19z"/>
   </g>
  </g>
  <polygon class="fil5" points="305.72,566.05 218.32,566.05 193.11,391.25 167.76,566.05 80.36,566.05 58.54,310.64 44.82,310.64 44.82,254.52 134.31,254.52 134.31,310.64 119.29,310.64 133.45,475.91 165.45,254.52 220.63,254.52 252.63,475.91 266.79,310.64 251.76,310.64 251.76,254.52 341.26,254.52 341.26,310.64 327.53,310.64 "/>
  <path class="fil7" d="M535.9 119.37l50.24 0 0 22.81 -20.5 0 0 21.8 18.19 0 0 21.66 -18.19 0 0 47.94 -29.74 0 0 -114.21zm87.2 0l0 114.21 -29.74 0 0 -114.21 29.74 0zm11.86 0l21.01 0c14.01,0 23.49,0.53 28.44,1.61 4.96,1.09 9,3.85 12.13,8.31 3.13,4.42 4.7,11.52 4.7,21.24 0,8.88 -1.11,14.85 -3.33,17.91 -2.19,3.05 -6.54,4.88 -13.04,5.48 5.87,1.47 9.84,3.42 11.87,5.87 2.02,2.44 3.27,4.7 3.75,6.74 0.5,2.05 0.75,7.68 0.75,16.89l0 30.16 -27.58 0 0 -38c0,-6.11 -0.48,-9.89 -1.45,-11.36 -0.93,-1.47 -3.44,-2.19 -7.5,-2.19l0 51.55 -29.75 0 0 -114.21zm29.75 19.49l0 25.41c3.32,0 5.63,-0.45 6.95,-1.37 1.32,-0.91 2,-3.9 2,-8.93l0 -6.28c0,-3.63 -0.65,-6.01 -1.93,-7.14 -1.27,-1.13 -3.63,-1.69 -7.02,-1.69zm48 -19.49l49.53 0 0 22.81 -19.78 0 0 21.8 18.48 0 0 21.66 -18.48 0 0 25.12 21.8 0 0 22.82 -51.55 0 0 -114.21z"/>
  <line class="fil6 str1" x1="82.92" y1="611.31" x2="308.05" y2= "612.7" />
 </g>
</svg>
